<?xml version="1.0" encoding="UTF-8" standalone="no"?>
<!-- Created with Inkscape (http://www.inkscape.org/) -->

<svg
   xmlns:dc="http://purl.org/dc/elements/1.1/"
   xmlns:cc="http://creativecommons.org/ns#"
   xmlns:rdf="http://www.w3.org/1999/02/22-rdf-syntax-ns#"
   xmlns:svg="http://www.w3.org/2000/svg"
   xmlns="http://www.w3.org/2000/svg"
   xmlns:sodipodi="http://sodipodi.sourceforge.net/DTD/sodipodi-0.dtd"
   xmlns:inkscape="http://www.inkscape.org/namespaces/inkscape"
   width="205.46811mm"
   height="144.08452mm"
   viewBox="0 0 205.46811 144.08452"
   version="1.1"
   id="svg8"
   inkscape:version="0.92.4 (5da689c313, 2019-01-14)"
   sodipodi:docname="puzzle-team.svg">
  <defs
     id="defs2" />
  <sodipodi:namedview
     id="base"
     pagecolor="#ffffff"
     bordercolor="#666666"
     borderopacity="1.0"
     inkscape:pageopacity="0.0"
     inkscape:pageshadow="2"
     inkscape:zoom="0.98994949"
     inkscape:cx="444.66922"
     inkscape:cy="382.6373"
     inkscape:document-units="mm"
     inkscape:current-layer="g884"
     showgrid="false"
     inkscape:window-width="2508"
     inkscape:window-height="1408"
     inkscape:window-x="2612"
     inkscape:window-y="0"
     inkscape:window-maximized="1" />
  <metadata
     id="metadata5">
    <rdf:RDF>
      <cc:Work
         rdf:about="">
        <dc:format>image/svg+xml</dc:format>
        <dc:type
           rdf:resource="http://purl.org/dc/dcmitype/StillImage" />
        <dc:title></dc:title>
      </cc:Work>
    </rdf:RDF>
  </metadata>
  <g
     inkscape:label="Layer 1"
     inkscape:groupmode="layer"
     id="layer1"
     transform="translate(-1.9606712,-68.853582)">
    <g
       transform="matrix(0.35277777,0,0,-0.35277777,60.224213,548.58095)"
       inkscape:label="ink_ext_XXXXXX"
       id="g882">
      <g
         transform="scale(0.1)"
         id="g884">
        <g
           id="g1015"
           transform="matrix(0.36401832,0,0,0.36401832,-1651.565,9514.2858)"
           style="display:inline">
          <path
             d="M 16000,0 H 0 V 11220 H 16000 V 0"
             style="fill:none;fill-opacity:1;fill-rule:nonzero;stroke:none"
             id="path886"
             inkscape:connector-curvature="0" />
          <path
             d="m 11310.9,2738.73 v 936.15 c -1.8,4.19 -3.7,8.3 -5.2,12.67 l -0.1,766.62 v 440.23 l -0.1,16.76 -1238.1,-0.12 c -102.25,45.62 -151.14,175.91 -85.58,281.06 168.18,269.8 206.58,603.37 -105.21,786.82 -252.83,148.75 -599.87,53.22 -740.06,-204.73 -115.25,-212.07 -20.83,-398.89 87.46,-588.61 59.82,-104.8 10.28,-230.13 -89.63,-274.64 l -1222.71,-0.12 v -16.77 l 0.04,-476.76 0.08,-717.24 c 30.5,-123.32 176.11,-189.66 291.69,-117.67 269.85,168.12 603.44,206.38 786.77,-105.49 148.67,-252.9 38.67,-594.03 -219.33,-734.12 -212.11,-115.17 -382.26,-22.39 -574.25,81.82 -126.81,68.82 -256.95,16.29 -284.78,-118.27 l 0.13,-1189.4 858.19,0.09 v -2.77 h 1844.19 v 2.97 l 691.5,0.07 -0.1,1209.31 c 1.5,4.18 3.4,8.13 5.1,12.14"
             style="fill:#5c8bc2;fill-opacity:1;fill-rule:nonzero;stroke:none"
             id="path888"
             inkscape:connector-curvature="0" />
          <path
             d="m 8990.98,3479.3 c -183.48,311.78 -517.05,273.36 -786.83,105.12 -129.74,-80.9 -297.84,12.39 -297.84,165.25 v 1128.6 H 6702.38 c -108.44,-39.13 -164.97,-170.42 -102.57,-279.61 108.38,-189.68 202.9,-376.45 87.75,-588.57 C 6547.5,3752.07 6200.5,3656.37 5947.59,3805 c -311.89,183.3 -273.65,516.9 -105.58,786.77 68.57,110.09 11.54,247.33 -100.58,286.5 H 4974.8 4534.57 l -0.32,9.33 h -16.78 v 20.54 h -5.04 V 4794.53 3669.98 2736.95 1564.58 1514.24 h 16.76 226.5 250.26 717.24 993.73 667.57 521.82 v 1143.29 c 0,149.51 161.53,243.19 291.39,169.09 189.74,-108.27 376.57,-202.67 588.62,-87.4 257.94,140.21 353.44,487.26 204.66,740.08"
             style="fill:#446eaa;fill-opacity:1;fill-rule:nonzero;stroke:none"
             id="path890"
             inkscape:connector-curvature="0" />
          <path
             d="m 4888.96,7947.58 81,68.53 104.92,-33.47 60.2,-87.63 -27.48,-74.81 -85.2,-49.39 32.35,-8.63 -5.92,-26.37 -133.82,-60.96 c -32.17,33.52 -140.64,59.28 -157.88,77.24 l 89.51,76.9 42.32,118.59"
             style="fill:#dbc6a4;fill-opacity:1;fill-rule:nonzero;stroke:none"
             id="path892"
             inkscape:connector-curvature="0" />
          <path
             d="m 2253.94,1791.88 -3.13,-30.57 -10.4,-101.46 202.09,-123.3 116.66,90.52 -95.85,112.37 -8.91,5.44 -4.73,-11.67 -195.73,58.67"
             style="fill:#4b505b;fill-opacity:1;fill-rule:nonzero;stroke:none"
             id="path894"
             inkscape:connector-curvature="0" />
          <path
             d="m 3095.41,3977.07 c -229.03,-15.05 -441.57,-21.27 -608.56,-23.49 l 5.94,-783.1 -249.75,-1375.34 10.91,-3.26 195.73,-58.67 4.72,11.67 656.32,1621.49 22.92,330.6 -38.23,280.1"
             style="fill:#a5a6a9;fill-opacity:1;fill-rule:nonzero;stroke:none"
             id="path896"
             inkscape:connector-curvature="0" />
          <path
             d="m 3133.64,3696.97 58.66,-429.87 66.87,-1551.46 1.13,-0.04 0.84,22.43 199.73,-6.09 315.17,1647.16 16.99,672.97 c -216.54,-34.56 -518.68,-60.06 -733.03,-75 l 73.64,-280.1"
             style="fill:#a5a6a9;fill-opacity:1;fill-rule:nonzero;stroke:none"
             id="path898"
             inkscape:connector-curvature="0" />
          <path
             d="m 3474.64,1731.52 -13.78,0.42 -199.72,6.09 -0.84,-22.43 -2.97,-79.49 209.7,-108.41 110.56,98.66 -102.95,105.16"
             style="fill:#4b505b;fill-opacity:1;fill-rule:nonzero;stroke:none"
             id="path900"
             inkscape:connector-curvature="0" />
          <path
             d="m 2772.08,7362.2 c -6.67,16.86 -13.34,33.72 -20.01,50.58 0.51,0.38 1.03,0.73 1.53,1.11 88.51,67.13 128.95,184.03 124.12,294.52 -3.14,72.1 -23.29,141.86 -52.18,208.29 -22.12,38 -49.23,72.88 -80.72,102.71 -56.98,54 -134.1,96.91 -209.43,94.28 -30.62,-1.07 -17.87,-24.94 -54.9,-6.08 -5,2.55 -10.88,7.78 -16.79,14.29 -5.42,-5.94 -9.17,-10.13 -10.2,-11.21 -35.57,-36.98 -74.85,-54.65 -117.51,-81.48 -64.76,-40.7 -99.59,-127.22 -84.07,-208.8 6.42,-33.75 20.62,-68.5 12.48,-100.84 -7.11,-28.25 -29.7,-47.73 -44.07,-72.24 -8.39,-14.31 -13.65,-30.63 -16.06,-47.6 70.88,-128.77 205.39,-232.35 343.77,-245.07 0.11,-0.5 0.24,-1.01 0.35,-1.52 1.85,-8.19 3.75,-16.36 6.03,-24.34 10.14,-35.47 34.28,-72.96 71.25,-75.6 16.89,-1.21 33.29,5.25 49,11.6 31.69,12.81 63.38,25.62 95.07,38.43 6.49,2.63 13.65,5.92 16.09,12.44 2.13,5.75 -0.13,12.07 -2.37,17.75 -3.8,9.6 -7.6,19.19 -11.38,28.78"
             style="fill:#dbc6a4;fill-opacity:1;fill-rule:nonzero;stroke:none"
             id="path902"
             inkscape:connector-curvature="0" />
          <path
             d="m 3454.42,8259.5 c -74.94,4.5 -141.18,-39.36 -202.11,-81.66 -10.85,73.72 -81.75,124.5 -149.8,144.4 -68.04,19.9 -139.66,19.77 -206.19,45.8 -79.97,31.3 -158.95,100.44 -238.37,77.92 -71.48,-20.27 -116.09,-107.2 -160.54,-184.36 -1.17,1.24 -2.34,2.49 -3.51,3.71 -34.22,35.56 -71.52,69.68 -115.61,87.91 -142.58,58.93 -126.21,-119.04 -235.79,-109.61 -26.45,2.27 -48.81,23.2 -73.75,34.19 -47.12,20.74 -99.59,4.31 -141.75,-21.33 -42.16,-25.63 -79.34,-60.31 -124.71,-79.47 -40.28,-17 -85.84,-21.21 -123.4,-43.75 -56.41,-33.86 -44.85,-95.09 -54.87,-150.91 -11.1,-61.79 -28.08,-145.03 -61.49,-196.31 -24.08,-36.96 -61.33,-61.1 -92.57,-91.26 -31.24,-30.17 -58.12,-72.21 -51.44,-118.38 6.33,-43.75 41.02,-79.27 50.99,-122.48 13.67,-64.6 6.62,-99.5 35.42,-163.58 14.86,-33.07 31.23,-68.01 60.22,-88.11 38.2,-26.49 86.87,-19.54 128.77,-6.85 41.89,12.69 84.62,30.26 128.65,21.63 95.48,-18.72 90.24,-113.08 124.53,-187.12 22.86,-49.34 63.65,-86.79 110.63,-108.68 60.31,-28.08 130.83,-30.49 186.7,0.67 84.27,46.99 122.48,156.3 105.45,257.08 -6.2,36.64 -21.75,70.22 -32.89,105.22 -4.2,13.2 -7.82,26.59 -10.01,40.43 -7.72,48.78 11.3,120.19 -38.29,153.24 -12.08,8.04 -26.64,11.23 -37.8,20.74 -9.01,7.69 -14.89,18.81 -19.13,30.13 -8.53,22.76 -10.82,47.54 -7.49,71.02 2.41,16.97 7.67,33.29 16.06,47.6 14.37,24.51 36.96,43.99 44.07,72.24 8.14,32.34 -6.06,67.09 -12.48,100.84 -15.52,81.58 19.31,168.1 84.07,208.8 42.66,26.83 81.94,44.5 117.51,81.48 1.03,1.08 4.78,5.27 10.2,11.21 5.91,-6.51 11.79,-11.74 16.79,-14.29 37.03,-18.86 24.28,5.01 54.9,6.08 75.33,2.63 152.45,-40.28 209.43,-94.28 31.49,-29.83 58.6,-64.71 80.72,-102.71 39.39,-67.69 62.7,-145.4 65.14,-222.92 3.49,-110.74 -53.93,-159.57 -1.19,-271.17 11.71,-24.78 26.14,-48.27 42.68,-70.04 45.25,-59.53 106.71,-105.77 174.76,-127.35 7.74,-0.02 15.43,0.34 23.08,0.95 38.41,3.06 75.53,13.97 109.65,31.25 34.03,17.24 65.08,40.76 91.37,69.2 39.44,42.68 68.23,96.31 80.47,155.96 6.67,32.48 9.87,68.45 31.21,91.93 17.17,18.9 43.39,26.22 60.97,44.7 73.13,76.86 -66.45,216.37 -35.04,321.99 19.87,66.76 102,92.81 119.85,160.34 19.93,75.41 -59.13,153.45 -134.07,157.96"
             style="fill:#625041;fill-opacity:1;fill-rule:nonzero;stroke:none"
             id="path904"
             inkscape:connector-curvature="0" />
          <path
             d="m 5027.31,7716.42 c -24.48,4.44 -279.13,76.66 -279.18,76.67 14.92,-2.35 -614.05,-464.07 -673.61,-500 -182.86,-110.32 -528.75,24.32 -743.49,33.53 -26.29,-28.44 -57.34,-51.96 -91.37,-69.2 -34.12,-17.28 -71.24,-28.19 -109.65,-31.25 -7.65,-0.61 -15.34,-0.97 -23.08,-0.95 -68.05,21.58 -129.51,67.82 -174.76,127.35 -26.22,6.12 -47.17,10.57 -61.27,13.64 l -98.82,-4.01 c 3.78,-9.59 7.58,-19.18 11.38,-28.78 2.24,-5.68 4.5,-12 2.37,-17.75 -2.44,-6.52 -9.6,-9.81 -16.09,-12.44 -31.69,-12.81 -63.38,-25.62 -95.07,-38.43 -15.71,-6.35 -32.11,-12.81 -49,-11.6 -36.97,2.64 -61.11,40.13 -71.25,75.6 -2.28,7.98 -4.18,16.15 -6.03,24.34 l -187.56,-7.6 -43.84,-61.37 c 11.14,-35 26.69,-68.58 32.89,-105.22 17.03,-100.78 -21.18,-210.09 -105.45,-257.08 -55.87,-31.16 -126.39,-28.75 -186.7,-0.67 l -38.98,-2201.38 184.09,-831.08 c 0,0 132.37,-3.62 337.04,-0.91 157.95,2.09 358.96,7.97 575.57,22.21 12.47,0.82 24.98,1.67 37.54,2.54 202.73,14.13 417.46,35.7 622.26,68.39 78.95,12.6 156.43,26.82 231.15,42.93 0,0 192.18,522.24 -83.94,1832.67 -43.39,205.9 -103.4,437.26 -161.66,642.18 184.08,157.93 677.33,430.93 838.44,612.24 176.5,198.6 429.71,605.13 435.27,604.12 -0.03,0 -2.68,0.49 -7.2,1.31"
             style="fill:#59595b;fill-opacity:1;fill-rule:nonzero;stroke:none"
             id="path906"
             inkscape:connector-curvature="0" />
          <path
             d="m 7761.51,6565.71 c -43.77,130.25 -179.29,166.79 -296.91,83.25 -178.1,-126.49 -335.89,-239.02 -560.28,-150.13 -272.96,108.12 -423.08,433.59 -305.84,702.49 144.59,331.62 480.36,333.66 768.43,199.14 123.38,-57.61 259.99,25.72 275.47,151.82 l -85.98,712.06 -57.16,473.33 -2.01,16.64 -383.34,-46.29 -2840.92,-343.35 -0.03,0.3 -145.12,-17.53 2,-16.64 52.78,-437.05 91.91,-761.1 c -0.99,-4.51 -2.41,-8.83 -3.7,-13.2 l 112.32,-929.41 c 2.24,-3.77 4.58,-7.46 6.58,-11.42 l 144.98,-1200.59 16.67,2.01 1.43,-9.22 437.05,52.82 761.09,91.99 c 116.02,-25.44 189.09,-154.85 134.23,-272.37 -134.48,-288.08 -132.42,-623.86 199.22,-768.42 268.91,-117.21 601.92,19.44 710.01,292.39 88.87,224.41 -27.38,398.49 -157.73,573.8 -75.05,100.91 -34.69,238.03 68.28,289.89 l 1200.58,145.11 -59.64,493.45 -0.29,-0.04 -84.08,696.27"
             style="fill:#86b4c6;fill-opacity:1;fill-rule:nonzero;stroke:none"
             id="path908"
             inkscape:connector-curvature="0" />
          <path
             d="m 4247.34,6033.14 -3.71,-115.53 203.9,-74.23 117.52,89.05 0.09,134.48 -113.47,6.33 -3.55,29.58 -37.15,23.89 -163.63,-93.57"
             style="fill:#dbc6a4;fill-opacity:1;fill-rule:nonzero;stroke:none"
             id="path910"
             inkscape:connector-curvature="0" />
          <path
             d="m 3650.37,6288.44 629.16,-124.43 c 0,0 -36.25,-383.73 -35.9,-351.84 0.34,31.9 -826.17,69.36 -826.17,69.36 l 232.91,406.91"
             style="fill:#59595b;fill-opacity:1;fill-rule:nonzero;stroke:none"
             id="path912"
             inkscape:connector-curvature="0" />
          <path
             d="m 13345.4,7552.71 -430.4,-75.83 -763.1,-591.09 -1019,266.02 -118,-244.86 947.3,-455.88 412.8,-104.12 536.2,175.01 434.2,1030.75"
             style="fill:#ffffff;fill-opacity:1;fill-rule:nonzero;stroke:none"
             id="path914"
             inkscape:connector-curvature="0" />
          <path
             d="m 11105.2,6991.57 -159.4,-79.77 -113.9,12.87 -0.7,38.87 66.8,26.64 -216.2,46.9 -19.8,104.31 259.1,61.55 234.7,-68.37 -50.6,-143"
             style="fill:#dbc6a4;fill-opacity:1;fill-rule:nonzero;stroke:none"
             id="path916"
             inkscape:connector-curvature="0" />
          <path
             d="m 12868.5,1935.53 -201,-142.35 -67,-108.85 c 0,0 75.4,-33.5 117.2,-41.87 41.9,-8.38 368.5,41.87 368.5,41.87 v 192.58 l -217.7,58.62"
             style="fill:#333743;fill-opacity:1;fill-rule:nonzero;stroke:none"
             id="path918"
             inkscape:connector-curvature="0" />
          <path
             d="m 14430,1874.9 -74.2,-134.9 c 0,0 -46.4,-170.43 -6.2,-158.75 40.2,11.68 264.4,50.63 273.4,79.42 9.1,28.79 106.4,144.24 117.8,165 11.4,20.76 -37,159.6 -37,159.6 L 14430,1874.9"
             style="fill:#333743;fill-opacity:1;fill-rule:nonzero;stroke:none"
             id="path920"
             inkscape:connector-curvature="0" />
          <path
             d="m 13055.5,5049.71 648.9,-1937.09 725.6,-1237.72 281.4,81.76 -481,1411.66 c 0,0 -58.1,1418.07 -153.1,1835.17 l -1021.8,-153.78"
             style="fill:#40495f;fill-opacity:1;fill-rule:nonzero;stroke:none"
             id="path922"
             inkscape:connector-curvature="0" />
          <path
             d="m 12541.9,4757.37 251.2,-2880.46 h 301.5 l 92.1,1473.73 173,1304.75 -658.7,771.86 -159.1,-669.88"
             style="fill:#40495f;fill-opacity:1;fill-rule:nonzero;stroke:none"
             id="path924"
             inkscape:connector-curvature="0" />
          <path
             d="m 12532.2,6600.52 c 31.2,148.46 43.5,308.26 117.1,446.68 73.5,138.42 212.4,243.27 319.6,360.97 45.4,49.86 93.9,101.76 161.4,125.53 46.3,16.29 97.4,17.75 147.2,19.01 151.2,3.81 302.4,7.62 453.7,11.43 55.1,1.39 112.4,2.41 162.7,-17.51 75.3,-29.85 117.8,-99.21 155,-163.92 95.1,-165.27 112.6,-348.58 121.1,-535.38 -0.3,-1.76 118,-2346.22 24.2,-2302.19 -116.8,54.81 -250.4,83.94 -381.5,104.33 -184.7,29.61 -373.4,48.43 -561.7,53.07 l -331.5,-22.36 h -200 c -120.1,-11.66 -110.2,-47.75 -233.6,-40.25 -79,4.8 10.6,1790.43 46.3,1960.59"
             style="fill:#ffffff;fill-opacity:1;fill-rule:nonzero;stroke:none"
             id="path926"
             inkscape:connector-curvature="0" />
          <path
             d="m 13400.8,7476.88 c 75.1,3.26 150.1,6.52 225.1,9.78 4.1,59.77 3.4,119.85 -2.2,179.51 63.5,18.41 137.2,47.23 151.6,111.67 4.6,20.29 2.2,41.43 -0.2,62.09 -10,85.42 -19.9,170.83 -29.8,256.25 -3.4,29.54 -7.1,59.96 -21.7,85.91 -25.5,45.55 -78.6,67.8 -129.4,79.56 -129.8,30.02 -274.1,9.55 -380.5,-70.62 -28.3,-21.34 -54.2,-47.44 -68,-80.1 -21.2,-50.35 -10.6,-107.79 0.3,-161.34 10.1,-49.42 20.2,-98.84 30.3,-148.27 11.6,-56.84 29.3,-121.72 82.1,-145.72 28,-12.74 62.1,-11.36 87.1,-29.31 44.2,-31.65 34.2,-99.35 55.3,-149.41"
             style="fill:#dbc6a4;fill-opacity:1;fill-rule:nonzero;stroke:none"
             id="path928"
             inkscape:connector-curvature="0" />
          <path
             d="m 12985,8562.41 c 16.7,2.98 33.7,6.49 50.9,13.99 54.4,23.65 92.5,71.11 150.2,93.32 116.8,44.92 263.2,38.4 377.9,-9.84 109.8,-46.17 259.6,-63.93 357.8,-125.96 41,-25.91 72.8,-64.59 96.8,-106.71 83.4,-145.94 73.2,-340.21 -25.2,-476.54 -22,-30.59 -47.9,-58.22 -75,-84.49 -56,-54.36 -123.1,-121.62 -196.9,-138.82 1.8,65.11 72.4,266.82 25.4,322.87 -62.2,74.34 -184.5,72.43 -272.1,64.23 -104.4,-9.78 -190.3,23.74 -294.4,18.53 -53.1,-2.66 -113,-13.32 -153.7,20.83 -47,39.47 -146.3,164.84 -169.9,219.86 -20.6,48.17 -6.9,107.49 29,145.7 30.9,32.98 64.4,36.82 99.2,43.03"
             style="fill:#434244;fill-opacity:1;fill-rule:nonzero;stroke:none"
             id="path930"
             inkscape:connector-curvature="0" />
          <path
             d="m 13421.1,7478.73 c -7.8,-54.94 -24.7,-117.27 -24.7,-117.27 0,0 -418.1,-1204.48 -457.8,-1300.64 -8.9,-21.49 -13.3,-44.49 -13.3,-67.74 l 96,-281.92 190.5,235.6 258.5,1349.63 62.7,53.88 22.1,136.83 -134,-8.37"
             style="fill:#445365;fill-opacity:1;fill-rule:nonzero;stroke:none"
             id="path932"
             inkscape:connector-curvature="0" />
          <path
             d="m 11702.7,5505.05 1092.4,3139.78 -15.8,5.51 -3189.61,1109.71 -380.67,-1094.13 c -50.23,-144.37 -239.65,-177.24 -335.6,-58.2 -199.5,247.54 -501.93,393.45 -777.68,159.26 -223.59,-189.9 -247.43,-549.05 -49.89,-766.23 162.4,-178.56 369.88,-150.78 584.66,-110.87 146.99,27.31 268.77,-114.25 219.64,-255.45 L 8474.47,6554.62 9597.81,6163.8 c 122.4,-9.24 229.4,100.6 205.26,230.12 -40.04,214.75 -67.93,422.21 110.52,584.72 217.11,197.66 576.21,174.03 766.31,-49.45 234.3,-275.61 88.6,-578.12 -158.8,-777.77 -106,-85.51 -91.2,-244.84 15.3,-314.16 l 677.4,-235.68 450.3,-156.66 15.8,-5.51 22.8,65.64 v 0"
             style="fill:#3b5585;fill-opacity:1;fill-rule:nonzero;stroke:none"
             id="path934"
             inkscape:connector-curvature="0" />
          <path
             d="m 13784.6,7141.33 -771.1,-728.07 -1143.9,340.99 -81.8,-257.3 1257.2,-575.16 h 330.8 l 699,594.7 -290.2,624.84"
             style="fill:#ffffff;fill-opacity:1;fill-rule:nonzero;stroke:none"
             id="path936"
             inkscape:connector-curvature="0" />
          <path
             d="m 11795.2,6520.15 -199.1,-3.66 -121.6,171.58 309,171.81 86.1,-105.63 -74.4,-234.1"
             style="fill:#dbc6a4;fill-opacity:1;fill-rule:nonzero;stroke:none"
             id="path938"
             inkscape:connector-curvature="0" />
        </g>
      </g>
    </g>
  </g>
</svg>
